<?xml version="1.0" encoding="UTF-8"?>
<!DOCTYPE svg PUBLIC "-//W3C//DTD SVG 1.1//EN" "http://www.w3.org/Graphics/SVG/1.1/DTD/svg11.dtd">
<svg xmlns="http://www.w3.org/2000/svg" version="1.1" width="512px" height="512px" style="shape-rendering:geometricPrecision; text-rendering:geometricPrecision; image-rendering:optimizeQuality; fill-rule:evenodd; clip-rule:evenodd" xmlns:xlink="http://www.w3.org/1999/xlink">
<g><path style="opacity:0.985" fill="#231f1e" d="M 239.5,-0.5 C 250.167,-0.5 260.833,-0.5 271.5,-0.5C 328.098,8.91851 365.598,40.9185 384,95.5C 392.429,129.35 389.763,162.35 376,194.5C 357.954,236.206 330.121,269.706 292.5,295C 287.341,297.412 282.341,300.079 277.5,303C 280,305.5 282.5,308 285,310.5C 288.621,322.388 284.121,328.221 271.5,328C 282.134,351.366 286.967,375.866 286,401.5C 283.022,419.791 275.022,435.458 262,448.5C 247.907,460.577 236.907,474.91 229,491.5C 227.181,496.44 225.514,501.44 224,506.5C 222.975,508.687 221.475,510.354 219.5,511.5C 216.167,511.5 212.833,511.5 209.5,511.5C 206.301,508.95 204.301,505.617 203.5,501.5C 208.028,480.772 217.528,462.772 232,447.5C 239.698,440.136 247.031,432.47 254,424.5C 264.773,408.578 267.773,391.245 263,372.5C 259.592,357.353 254.758,342.687 248.5,328.5C 242.862,327.67 237.196,327.17 231.5,327C 224.947,324.27 222.78,319.437 225,312.5C 227.463,309.035 230.296,305.869 233.5,303C 197.538,284.372 169.372,257.539 149,222.5C 132.275,194.824 123.109,164.824 121.5,132.5C 123.719,80.534 147.053,41.3674 191.5,15C 206.743,7.08426 222.743,1.91759 239.5,-0.5 Z"/></g>
<g><path style="opacity:1" fill="#ed413e" d="M 365.5,109.5 C 362.476,132.557 354.643,153.89 342,173.5C 327.985,195.183 310.818,214.017 290.5,230C 279.927,238.036 268.094,243.203 255,245.5C 243.296,243.792 232.796,239.292 223.5,232C 184.718,203.53 158.885,166.03 146,119.5C 145.502,116.183 145.335,112.85 145.5,109.5C 156.916,62.9169 185.916,33.7503 232.5,22C 282.617,14.6583 322.117,31.4917 351,72.5C 358.096,83.9557 362.929,96.289 365.5,109.5 Z"/></g>
<g><path style="opacity:1" fill="#251f1f" d="M 244.5,40.5 C 250.732,39.9386 256.732,40.772 262.5,43C 265.894,47.1048 266.394,51.6048 264,56.5C 262.786,58.0488 261.286,59.2155 259.5,60C 211.229,63.9382 185.395,90.1049 182,138.5C 177.8,142.714 172.966,143.548 167.5,141C 164.109,137.385 162.775,133.052 163.5,128C 169.276,79.0614 196.276,49.8947 244.5,40.5 Z"/></g>
<g><path style="opacity:1" fill="#bb3836" d="M 145.5,109.5 C 145.335,112.85 145.502,116.183 146,119.5C 158.885,166.03 184.718,203.53 223.5,232C 232.796,239.292 243.296,243.792 255,245.5C 268.094,243.203 279.927,238.036 290.5,230C 310.818,214.017 327.985,195.183 342,173.5C 354.643,153.89 362.476,132.557 365.5,109.5C 367.554,116.383 368.554,123.549 368.5,131C 366.754,161.904 357.587,190.404 341,216.5C 323.689,244.145 300.856,265.979 272.5,282C 261.959,287.433 251.292,287.766 240.5,283C 211.196,267.03 187.696,244.863 170,216.5C 153.013,190.539 143.847,162.039 142.5,131C 142.446,123.549 143.446,116.383 145.5,109.5 Z"/></g>
</svg>
