<?xml version="1.0" standalone="no"?>
<!DOCTYPE svg PUBLIC "-//W3C//DTD SVG 20010904//EN"
 "http://www.w3.org/TR/2001/REC-SVG-20010904/DTD/svg10.dtd">
<svg version="1.0" xmlns="http://www.w3.org/2000/svg"
 width="128.000000pt" height="128.000000pt" viewBox="0 0 128.000000 128.000000"
 preserveAspectRatio="xMidYMid meet">

<g transform="translate(0.000000,128.000000) scale(0.100000,-0.100000)"
fill="#000000" stroke="none">
<path d="M564 1271 c-148 -38 -254 -173 -254 -325 0 -138 93 -303 219 -388 25
-17 47 -32 49 -34 2 -1 -1 -11 -7 -22 -12 -23 3 -42 35 -42 14 0 24 -8 28 -22
45 -157 41 -180 -36 -265 -55 -60 -92 -132 -82 -157 11 -29 34 -17 53 28 11
23 44 71 74 105 40 44 58 74 65 106 10 45 2 118 -17 169 -10 25 -9 31 9 43 16
12 18 18 9 34 -6 12 -9 22 -7 23 2 2 24 17 49 34 90 60 172 174 203 281 63
216 -76 423 -292 436 -37 2 -81 1 -98 -4z"/>
</g>
</svg>
