<svg version="1.1" id="Layer_1" xmlns="http://www.w3.org/2000/svg" xmlns:xlink="http://www.w3.org/1999/xlink" x="0px" y="0px"
	 width="100%" viewBox="0 0 512 512" enable-background="new 0 0 512 512" xml:space="preserve">
<path fill="#000000" opacity="1.000000" stroke="none" 
	d="
M280.000000,0.999998 
	C357.634125,1.000000 435.268219,1.000000 512.951172,1.000000 
	C512.951172,171.562546 512.951172,342.125122 512.951172,513.000000 
	C416.311554,513.000000 319.622742,513.000000 222.570480,512.674133 
	C223.960114,508.632294 225.783813,504.947662 227.450287,501.193207 
	C230.144501,495.123413 231.667618,488.192017 235.579514,483.071625 
	C245.438492,470.166779 256.195526,457.930634 266.887634,445.684082 
	C279.923584,430.752930 288.079803,414.004852 288.019897,393.772552 
	C287.961273,373.975464 282.703156,355.319061 275.984772,336.949005 
	C275.159729,334.693146 274.543549,332.360901 273.665039,329.530731 
	C280.638306,328.922852 286.372040,327.695221 287.861053,320.186462 
	C289.321564,312.821381 282.894165,309.536865 279.916992,304.794891 
	C280.314575,304.052399 280.397522,303.658752 280.637817,303.492249 
	C281.455048,302.925995 282.293793,302.370667 283.184357,301.933380 
	C302.871918,292.265472 319.345795,278.552307 334.157104,262.488007 
	C352.175385,242.945419 366.648895,221.173553 377.017120,196.744125 
	C389.531464,167.258102 395.111511,136.521057 387.309326,105.105148 
	C373.929260,51.229427 339.618835,17.345846 285.643097,3.615508 
	C283.668091,3.113108 281.876862,1.888193 280.000000,0.999998 
z"/>
<path fill="#000000" opacity="1.000000" stroke="none" 
	d="
M210.000000,513.000000 
	C140.365173,513.000000 70.730347,513.000000 1.047762,513.000000 
	C1.047762,342.443176 1.047762,171.886368 1.047762,1.000000 
	C78.354454,1.000000 155.709381,1.000000 233.352539,1.309114 
	C232.458084,2.149545 231.307678,2.773774 230.087662,3.197707 
	C218.794739,7.121769 206.808777,9.701818 196.317047,15.158310 
	C165.813858,31.022287 143.925262,55.120419 131.730392,87.614960 
	C123.971436,108.289536 121.911484,129.576920 124.605797,151.390701 
	C127.932518,178.324570 137.702316,202.962158 152.023956,225.796173 
	C172.052856,257.729706 196.813965,284.889923 231.121521,302.094513 
	C232.221603,302.646179 233.136902,303.566315 234.572021,304.638763 
	C232.641495,306.689728 231.134277,308.424255 229.487305,310.013977 
	C225.633423,313.733948 225.143127,318.085022 227.028305,322.840851 
	C228.899689,327.561920 232.861816,328.895172 237.496887,328.971497 
	C239.995773,329.012604 242.503265,329.135345 244.992950,328.987335 
	C248.559036,328.775269 250.722961,330.446106 251.699982,333.701660 
	C256.330963,349.132812 261.840546,364.376923 265.259216,380.074860 
	C269.114624,397.778259 265.633209,414.528107 253.082718,428.508453 
	C246.197845,436.177582 239.256332,443.800659 232.168823,451.282013 
	C221.824600,462.201263 214.015396,474.651550 208.951492,488.803589 
	C206.024216,496.984375 202.838165,505.231689 210.000000,513.000000 
z"/>
<path fill="#241F1F" opacity="1.000000" stroke="none" 
	d="
M210.460632,513.000000 
	C202.838165,505.231689 206.024216,496.984375 208.951492,488.803589 
	C214.015396,474.651550 221.824600,462.201263 232.168823,451.282013 
	C239.256332,443.800659 246.197845,436.177582 253.082718,428.508453 
	C265.633209,414.528107 269.114624,397.778259 265.259216,380.074860 
	C261.840546,364.376923 256.330963,349.132812 251.699982,333.701660 
	C250.722961,330.446106 248.559036,328.775269 244.992950,328.987335 
	C242.503265,329.135345 239.995773,329.012604 237.496887,328.971497 
	C232.861816,328.895172 228.899689,327.561920 227.028305,322.840851 
	C225.143127,318.085022 225.633423,313.733948 229.487305,310.013977 
	C231.134277,308.424255 232.641495,306.689728 234.572021,304.638763 
	C233.136902,303.566315 232.221603,302.646179 231.121521,302.094513 
	C196.813965,284.889923 172.052856,257.729706 152.023956,225.796173 
	C137.702316,202.962158 127.932518,178.324570 124.605797,151.390701 
	C121.911484,129.576920 123.971436,108.289536 131.730392,87.614960 
	C143.925262,55.120419 165.813858,31.022287 196.317047,15.158310 
	C206.808777,9.701818 218.794739,7.121769 230.087662,3.197707 
	C231.307678,2.773774 232.458084,2.149545 233.820389,1.309114 
	C249.020889,1.000000 264.041779,1.000000 279.531342,0.999998 
	C281.876862,1.888193 283.668091,3.113108 285.643097,3.615508 
	C339.618835,17.345846 373.929260,51.229427 387.309326,105.105148 
	C395.111511,136.521057 389.531464,167.258102 377.017120,196.744125 
	C366.648895,221.173553 352.175385,242.945419 334.157104,262.488007 
	C319.345795,278.552307 302.871918,292.265472 283.184357,301.933380 
	C282.293793,302.370667 281.455048,302.925995 280.637817,303.492249 
	C280.397522,303.658752 280.314575,304.052399 279.916992,304.794891 
	C282.894165,309.536865 289.321564,312.821381 287.861053,320.186462 
	C286.372040,327.695221 280.638306,328.922852 273.665039,329.530731 
	C274.543549,332.360901 275.159729,334.693146 275.984772,336.949005 
	C282.703156,355.319061 287.961273,373.975464 288.019897,393.772552 
	C288.079803,414.004852 279.923584,430.752930 266.887634,445.684082 
	C256.195526,457.930634 245.438492,470.166779 235.579514,483.071625 
	C231.667618,488.192017 230.144501,495.123413 227.450287,501.193207 
	C225.783813,504.947662 223.960114,508.632294 222.103500,512.674133 
	C218.307098,513.000000 214.614182,513.000000 210.460632,513.000000 
M367.972931,117.174667 
	C367.756531,115.360474 367.717957,113.503975 367.297821,111.738258 
	C356.298492,65.507019 327.821655,35.732067 281.798065,24.430441 
	C237.707489,13.603498 191.763580,31.739674 165.584412,68.498390 
	C155.012634,83.342468 147.604416,99.550919 145.622147,118.698387 
	C145.536652,128.984009 143.964813,139.514679 145.613495,149.514374 
	C154.493744,203.375275 183.648758,244.499283 227.184372,276.262238 
	C247.263443,290.911621 267.103119,290.758789 287.075165,276.117462 
	C330.370422,244.378220 359.508179,203.390030 368.307526,149.698807 
	C369.989655,139.434952 368.145905,128.593231 367.972931,117.174667 
z"/>
<path fill="#ED423F" opacity="1.000000" stroke="none" 
	d="
M146.056412,118.011215 
	C147.604416,99.550919 155.012634,83.342468 165.584412,68.498390 
	C191.763580,31.739674 237.707489,13.603498 281.798065,24.430441 
	C327.821655,35.732067 356.298492,65.507019 367.297821,111.738258 
	C367.717957,113.503975 367.756531,115.360474 367.719421,117.866898 
	C366.961823,119.782707 366.296509,120.965775 365.977386,122.235825 
	C359.160645,149.363556 346.434937,173.510864 328.886383,195.141678 
	C314.424713,212.967484 298.137665,228.701324 277.946869,240.215042 
	C263.243439,248.599625 249.204285,248.340820 235.033539,239.539841 
	C234.326187,239.100540 233.598541,238.694016 232.882736,238.268204 
	C218.001633,229.416336 205.244675,218.038208 193.691071,205.242661 
	C172.485138,181.757233 156.714523,155.237457 148.579529,124.442093 
	C147.995331,122.230621 146.909180,120.151741 146.056412,118.011215 
M169.280167,142.498352 
	C178.125748,146.670853 184.729507,142.653137 185.283508,132.761963 
	C187.108887,100.172493 206.585358,74.290237 236.448715,65.603500 
	C243.234634,63.629597 250.507950,63.299099 257.572449,62.324867 
	C263.631561,61.489296 267.371796,57.372662 267.095886,51.612007 
	C266.836182,46.189186 262.732422,42.111080 256.919220,42.071049 
	C252.612839,42.041389 248.279495,42.438915 243.997040,42.963478 
	C200.100327,48.340431 164.603790,88.564491 165.087173,132.668777 
	C165.121414,135.793686 167.419174,138.893768 169.280167,142.498352 
z"/>
<path fill="#BC3937" opacity="1.000000" stroke="none" 
	d="
M145.839279,118.354797 
	C146.909180,120.151741 147.995331,122.230621 148.579529,124.442093 
	C156.714523,155.237457 172.485138,181.757233 193.691071,205.242661 
	C205.244675,218.038208 218.001633,229.416336 232.882736,238.268204 
	C233.598541,238.694016 234.326187,239.100540 235.033539,239.539841 
	C249.204285,248.340820 263.243439,248.599625 277.946869,240.215042 
	C298.137665,228.701324 314.424713,212.967484 328.886383,195.141678 
	C346.434937,173.510864 359.160645,149.363556 365.977386,122.235825 
	C366.296509,120.965775 366.961823,119.782707 367.697388,118.288620 
	C368.145905,128.593231 369.989655,139.434952 368.307526,149.698807 
	C359.508179,203.390030 330.370422,244.378220 287.075165,276.117462 
	C267.103119,290.758789 247.263443,290.911621 227.184372,276.262238 
	C183.648758,244.499283 154.493744,203.375275 145.613495,149.514374 
	C143.964813,139.514679 145.536652,128.984009 145.839279,118.354797 
z"/>
<path fill="#261F1F" opacity="1.000000" stroke="none" 
	d="
M168.972290,142.251877 
	C167.419174,138.893768 165.121414,135.793686 165.087173,132.668777 
	C164.603790,88.564491 200.100327,48.340431 243.997040,42.963478 
	C248.279495,42.438915 252.612839,42.041389 256.919220,42.071049 
	C262.732422,42.111080 266.836182,46.189186 267.095886,51.612007 
	C267.371796,57.372662 263.631561,61.489296 257.572449,62.324867 
	C250.507950,63.299099 243.234634,63.629597 236.448715,65.603500 
	C206.585358,74.290237 187.108887,100.172493 185.283508,132.761963 
	C184.729507,142.653137 178.125748,146.670853 168.972290,142.251877 
z"/>
</svg>